# Blender 4.0.2
# www.blender.org
mtllib Chair.mtl
o BezierCurve
v 0.797608 0.196625 0.316519
v 0.630519 0.126664 0.316519
v 0.466059 0.077206 0.316519
v 0.305369 0.045903 0.316519
v 0.149590 0.030405 0.316519
v -0.000136 0.028363 0.316519
v -0.142668 0.037427 0.316519
v -0.276864 0.055249 0.316519
v -0.401583 0.079480 0.316519
v -0.515683 0.107770 0.316519
v -0.618024 0.137771 0.316519
v -0.707463 0.167133 0.316519
v -0.782859 0.193507 0.316519
v 0.804881 0.294470 0.316519
v 0.637792 0.224510 0.316519
v 0.473332 0.175052 0.316519
v 0.312642 0.143749 0.316519
v 0.156863 0.128251 0.316519
v 0.007137 0.126208 0.316519
v -0.135394 0.135273 0.316519
v -0.269590 0.153095 0.316519
v -0.394309 0.177326 0.316519
v -0.508410 0.205616 0.316519
v -0.610750 0.235617 0.316519
v -0.700190 0.264978 0.316519
v -0.775586 0.291352 0.316519
v 0.797608 0.196625 0.413776
v 0.630519 0.126664 0.413776
v 0.466059 0.077206 0.413776
v 0.305369 0.045903 0.413776
v 0.149590 0.030405 0.413776
v -0.000136 0.028363 0.413776
v -0.142668 0.037427 0.413776
v -0.276864 0.055249 0.413776
v -0.401583 0.079480 0.413776
v -0.515683 0.107770 0.413776
v -0.618024 0.137771 0.413776
v -0.707463 0.167133 0.413776
v -0.782859 0.193507 0.413776
v 0.804881 0.294470 0.413776
v 0.637792 0.224510 0.413776
v 0.473332 0.175052 0.413776
v 0.312642 0.143749 0.413776
v 0.156863 0.128251 0.413776
v 0.007137 0.126208 0.413776
v -0.135394 0.135273 0.413776
v -0.269590 0.153095 0.413776
v -0.394309 0.177326 0.413776
v -0.508410 0.205616 0.413776
v -0.610750 0.235617 0.413776
v -0.700190 0.264978 0.413776
v -0.775586 0.291352 0.413776
vn -0.0000 -0.0000 1.0000
vn -0.0000 -0.0000 -1.0000
vn -0.1912 0.9815 -0.0000
vn -0.0635 -0.9980 -0.0000
vn 0.3119 0.9501 -0.0000
vn -0.0990 0.9951 -0.0000
vn -0.1317 -0.9913 -0.0000
vn -0.9972 0.0741 -0.0000
vn 0.3302 0.9439 -0.0000
vn -0.0136 0.9999 -0.0000
vn -0.1907 -0.9816 -0.0000
vn 0.3862 -0.9224 -0.0000
vn 0.0635 0.9980 -0.0000
vn -0.2407 -0.9706 -0.0000
vn 0.2880 -0.9576 -0.0000
vn 0.1317 0.9913 -0.0000
vn -0.2813 -0.9596 -0.0000
vn 0.9972 -0.0741 -0.0000
vn 0.1912 -0.9815 -0.0000
vn 0.1907 0.9816 -0.0000
vn -0.3119 -0.9501 -0.0000
vn -0.3862 0.9224 -0.0000
vn 0.0990 -0.9951 -0.0000
vn 0.2407 0.9706 -0.0000
vn -0.3302 -0.9439 -0.0000
vn -0.2880 0.9576 -0.0000
vn 0.0136 -0.9999 -0.0000
vn 0.2813 0.9596 -0.0000
s 0
f 3//1 16//1 17//1 4//1
f 10//1 23//1 24//1 11//1
f 7//1 20//1 21//1 8//1
f 4//1 17//1 18//1 5//1
f 11//1 24//1 25//1 12//1
f 1//1 14//1 15//1 2//1
f 8//1 21//1 22//1 9//1
f 5//1 18//1 19//1 6//1
f 12//1 25//1 26//1 13//1
f 2//1 15//1 16//1 3//1
f 9//1 22//1 23//1 10//1
f 6//1 19//1 20//1 7//1
f 29//2 30//2 43//2 42//2
f 36//2 37//2 50//2 49//2
f 33//2 34//2 47//2 46//2
f 30//2 31//2 44//2 43//2
f 37//2 38//2 51//2 50//2
f 27//2 28//2 41//2 40//2
f 34//2 35//2 48//2 47//2
f 31//2 32//2 45//2 44//2
f 38//2 39//2 52//2 51//2
f 28//2 29//2 42//2 41//2
f 35//2 36//2 49//2 48//2
f 32//2 33//2 46//2 45//2
f 3//3 4//3 30//3 29//3
f 20//4 19//4 45//4 46//4
f 11//5 12//5 38//5 37//5
f 4//6 5//6 31//6 30//6
f 21//7 20//7 46//7 47//7
f 14//8 1//8 27//8 40//8
f 12//9 13//9 39//9 38//9
f 5//10 6//10 32//10 31//10
f 22//11 21//11 47//11 48//11
f 15//12 14//12 40//12 41//12
f 6//13 7//13 33//13 32//13
f 23//14 22//14 48//14 49//14
f 16//15 15//15 41//15 42//15
f 7//16 8//16 34//16 33//16
f 24//17 23//17 49//17 50//17
f 13//18 26//18 52//18 39//18
f 17//19 16//19 42//19 43//19
f 8//20 9//20 35//20 34//20
f 25//21 24//21 50//21 51//21
f 1//22 2//22 28//22 27//22
f 18//23 17//23 43//23 44//23
f 9//24 10//24 36//24 35//24
f 26//25 25//25 51//25 52//25
f 2//26 3//26 29//26 28//26
f 19//27 18//27 44//27 45//27
f 10//28 11//28 37//28 36//28
o BezierCurve.001
v 0.797608 0.196625 -0.379699
v 0.630519 0.126664 -0.379699
v 0.466059 0.077206 -0.379699
v 0.305369 0.045903 -0.379699
v 0.149590 0.030405 -0.379699
v -0.000136 0.028363 -0.379699
v -0.142668 0.037427 -0.379699
v -0.276864 0.055249 -0.379699
v -0.401583 0.079480 -0.379699
v -0.515683 0.107770 -0.379699
v -0.618024 0.137771 -0.379699
v -0.707463 0.167133 -0.379699
v -0.782859 0.193507 -0.379699
v 0.804881 0.294470 -0.379699
v 0.637792 0.224510 -0.379699
v 0.473332 0.175052 -0.379699
v 0.312642 0.143749 -0.379699
v 0.156863 0.128251 -0.379699
v 0.007137 0.126208 -0.379699
v -0.135394 0.135273 -0.379699
v -0.269590 0.153095 -0.379699
v -0.394309 0.177326 -0.379699
v -0.508410 0.205616 -0.379699
v -0.610750 0.235617 -0.379699
v -0.700190 0.264978 -0.379699
v -0.775586 0.291352 -0.379699
v 0.797608 0.196625 -0.282442
v 0.630519 0.126664 -0.282442
v 0.466059 0.077206 -0.282442
v 0.305369 0.045903 -0.282442
v 0.149590 0.030405 -0.282442
v -0.000136 0.028363 -0.282442
v -0.142668 0.037427 -0.282442
v -0.276864 0.055249 -0.282442
v -0.401583 0.079480 -0.282442
v -0.515683 0.107770 -0.282442
v -0.618024 0.137771 -0.282442
v -0.707463 0.167133 -0.282442
v -0.782859 0.193507 -0.282442
v 0.804881 0.294470 -0.282442
v 0.637792 0.224510 -0.282442
v 0.473332 0.175052 -0.282442
v 0.312642 0.143749 -0.282442
v 0.156863 0.128251 -0.282442
v 0.007137 0.126208 -0.282442
v -0.135394 0.135273 -0.282442
v -0.269590 0.153095 -0.282442
v -0.394309 0.177326 -0.282442
v -0.508410 0.205616 -0.282442
v -0.610750 0.235617 -0.282442
v -0.700190 0.264978 -0.282442
v -0.775586 0.291352 -0.282442
vn -0.0000 -0.0000 1.0000
vn -0.0000 -0.0000 -1.0000
vn -0.1912 0.9815 -0.0000
vn -0.0635 -0.9980 -0.0000
vn 0.3119 0.9501 -0.0000
vn -0.0990 0.9951 -0.0000
vn -0.1317 -0.9913 -0.0000
vn -0.9972 0.0741 -0.0000
vn 0.3302 0.9439 -0.0000
vn -0.0136 0.9999 -0.0000
vn -0.1907 -0.9816 -0.0000
vn 0.3862 -0.9224 -0.0000
vn 0.0635 0.9980 -0.0000
vn -0.2407 -0.9706 -0.0000
vn 0.2880 -0.9576 -0.0000
vn 0.1317 0.9913 -0.0000
vn -0.2813 -0.9596 -0.0000
vn 0.9972 -0.0741 -0.0000
vn 0.1912 -0.9815 -0.0000
vn 0.1907 0.9816 -0.0000
vn -0.3119 -0.9501 -0.0000
vn -0.3862 0.9224 -0.0000
vn 0.0990 -0.9951 -0.0000
vn 0.2407 0.9706 -0.0000
vn -0.3302 -0.9439 -0.0000
vn -0.2880 0.9576 -0.0000
vn 0.0136 -0.9999 -0.0000
vn 0.2813 0.9596 -0.0000
s 0
f 55//29 68//29 69//29 56//29
f 62//29 75//29 76//29 63//29
f 59//29 72//29 73//29 60//29
f 56//29 69//29 70//29 57//29
f 63//29 76//29 77//29 64//29
f 53//29 66//29 67//29 54//29
f 60//29 73//29 74//29 61//29
f 57//29 70//29 71//29 58//29
f 64//29 77//29 78//29 65//29
f 54//29 67//29 68//29 55//29
f 61//29 74//29 75//29 62//29
f 58//29 71//29 72//29 59//29
f 81//30 82//30 95//30 94//30
f 88//30 89//30 102//30 101//30
f 85//30 86//30 99//30 98//30
f 82//30 83//30 96//30 95//30
f 89//30 90//30 103//30 102//30
f 79//30 80//30 93//30 92//30
f 86//30 87//30 100//30 99//30
f 83//30 84//30 97//30 96//30
f 90//30 91//30 104//30 103//30
f 80//30 81//30 94//30 93//30
f 87//30 88//30 101//30 100//30
f 84//30 85//30 98//30 97//30
f 55//31 56//31 82//31 81//31
f 72//32 71//32 97//32 98//32
f 63//33 64//33 90//33 89//33
f 56//34 57//34 83//34 82//34
f 73//35 72//35 98//35 99//35
f 66//36 53//36 79//36 92//36
f 64//37 65//37 91//37 90//37
f 57//38 58//38 84//38 83//38
f 74//39 73//39 99//39 100//39
f 67//40 66//40 92//40 93//40
f 58//41 59//41 85//41 84//41
f 75//42 74//42 100//42 101//42
f 68//43 67//43 93//43 94//43
f 59//44 60//44 86//44 85//44
f 76//45 75//45 101//45 102//45
f 65//46 78//46 104//46 91//46
f 69//47 68//47 94//47 95//47
f 60//48 61//48 87//48 86//48
f 77//49 76//49 102//49 103//49
f 53//50 54//50 80//50 79//50
f 70//51 69//51 95//51 96//51
f 61//52 62//52 88//52 87//52
f 78//53 77//53 103//53 104//53
f 54//54 55//54 81//54 80//54
f 71//55 70//55 96//55 97//55
f 62//56 63//56 89//56 88//56
o Cube
v 0.402805 0.577986 0.399169
v 0.456993 0.103823 0.399169
v 0.402805 0.577986 0.333359
v 0.456993 0.103823 0.333359
v 0.327796 0.569293 0.399169
v 0.381984 0.095130 0.399169
v 0.327796 0.569293 0.333359
v 0.381984 0.095130 0.333359
vn 0.9935 0.1135 -0.0000
vn -0.0000 -0.0000 -1.0000
vn -0.9935 -0.1135 -0.0000
vn -0.0000 -0.0000 1.0000
vn -0.1151 0.9934 -0.0000
vn 0.1151 -0.9934 -0.0000
vt 0.375000 0.000000
vt 0.625000 0.000000
vt 0.625000 0.250000
vt 0.375000 0.250000
vt 0.625000 0.500000
vt 0.375000 0.500000
vt 0.625000 0.750000
vt 0.375000 0.750000
vt 0.625000 1.000000
vt 0.375000 1.000000
vt 0.125000 0.500000
vt 0.125000 0.750000
vt 0.875000 0.500000
vt 0.875000 0.750000
s 0
f 105/1/57 106/2/57 108/3/57 107/4/57
f 107/4/58 108/3/58 112/5/58 111/6/58
f 111/6/59 112/5/59 110/7/59 109/8/59
f 109/8/60 110/7/60 106/9/60 105/10/60
f 107/11/61 111/6/61 109/8/61 105/12/61
f 112/5/62 108/13/62 106/14/62 110/7/62
o Cube.001
v 0.007861 0.543023 0.399169
v -0.022222 0.066723 0.399169
v 0.007861 0.543023 0.333359
v -0.022222 0.066723 0.333359
v -0.067507 0.547664 0.399169
v -0.097591 0.071363 0.399169
v -0.067507 0.547664 0.333359
v -0.097591 0.071363 0.333359
vn 0.9980 -0.0630 -0.0000
vn -0.0000 -0.0000 -1.0000
vn -0.9980 0.0630 -0.0000
vn -0.0000 -0.0000 1.0000
vn 0.0615 0.9981 -0.0000
vn -0.0615 -0.9981 -0.0000
vt 0.375000 0.000000
vt 0.625000 0.000000
vt 0.625000 0.250000
vt 0.375000 0.250000
vt 0.625000 0.500000
vt 0.375000 0.500000
vt 0.625000 0.750000
vt 0.375000 0.750000
vt 0.625000 1.000000
vt 0.375000 1.000000
vt 0.125000 0.500000
vt 0.125000 0.750000
vt 0.875000 0.500000
vt 0.875000 0.750000
s 0
f 113/15/63 114/16/63 116/17/63 115/18/63
f 115/18/64 116/17/64 120/19/64 119/20/64
f 119/20/65 120/19/65 118/21/65 117/22/65
f 117/22/66 118/21/66 114/23/66 113/24/66
f 115/25/67 119/20/67 117/22/67 113/26/67
f 120/19/68 116/27/68 114/28/68 118/21/68
o Cube.002
v 0.759752 0.594379 0.459920
v 0.760176 0.505886 0.459920
v 0.759752 0.594379 -0.423934
v 0.760176 0.505886 -0.423934
v -0.275342 0.589421 0.459920
v -0.274918 0.500927 0.459920
v -0.275342 0.589421 -0.423934
v -0.274918 0.500927 -0.423934
vn 1.0000 0.0048 -0.0000
vn -0.0000 -0.0000 -1.0000
vn -1.0000 -0.0048 -0.0000
vn -0.0000 -0.0000 1.0000
vn -0.0048 1.0000 -0.0000
vn 0.0048 -1.0000 -0.0000
vt 0.375000 0.000000
vt 0.625000 0.000000
vt 0.625000 0.250000
vt 0.375000 0.250000
vt 0.625000 0.500000
vt 0.375000 0.500000
vt 0.625000 0.750000
vt 0.375000 0.750000
vt 0.625000 1.000000
vt 0.375000 1.000000
vt 0.125000 0.500000
vt 0.125000 0.750000
vt 0.875000 0.500000
vt 0.875000 0.750000
s 0
f 121/29/69 122/30/69 124/31/69 123/32/69
f 123/32/70 124/31/70 128/33/70 127/34/70
f 127/34/71 128/33/71 126/35/71 125/36/71
f 125/36/72 126/35/72 122/37/72 121/38/72
f 123/39/73 127/34/73 125/36/73 121/40/73
f 128/33/74 124/41/74 122/42/74 126/35/74
o Cube.003
v -0.183432 0.529160 0.459920
v -0.265532 0.496133 0.459920
v -0.183432 0.529160 -0.423934
v -0.265532 0.496132 -0.423934
v -0.569749 1.489474 0.459920
v -0.651849 1.456446 0.459920
v -0.569749 1.489474 -0.423934
v -0.651849 1.456446 -0.423934
vn 0.3732 -0.9277 -0.0000
vn -0.0000 -0.0000 -1.0000
vn -0.3732 0.9277 -0.0000
vn -0.0000 -0.0000 1.0000
vn 0.9277 0.3732 -0.0000
vn -0.9277 -0.3732 -0.0000
vt 0.375000 0.000000
vt 0.625000 0.000000
vt 0.625000 0.250000
vt 0.375000 0.250000
vt 0.625000 0.500000
vt 0.375000 0.500000
vt 0.625000 0.750000
vt 0.375000 0.750000
vt 0.625000 1.000000
vt 0.375000 1.000000
vt 0.125000 0.500000
vt 0.125000 0.750000
vt 0.875000 0.500000
vt 0.875000 0.750000
s 0
f 129/43/75 130/44/75 132/45/75 131/46/75
f 131/46/76 132/45/76 136/47/76 135/48/76
f 135/48/77 136/47/77 134/49/77 133/50/77
f 133/50/78 134/49/78 130/51/78 129/52/78
f 131/53/79 135/48/79 133/50/79 129/54/79
f 136/47/80 132/55/80 130/56/80 134/49/80
o Cube.004
v 0.007861 0.543023 -0.280562
v -0.022222 0.066723 -0.280562
v 0.007861 0.543023 -0.346371
v -0.022222 0.066723 -0.346371
v -0.067507 0.547664 -0.280562
v -0.097591 0.071363 -0.280562
v -0.067507 0.547664 -0.346371
v -0.097591 0.071363 -0.346371
vn 0.9980 -0.0630 -0.0000
vn -0.0000 -0.0000 -1.0000
vn -0.9980 0.0630 -0.0000
vn -0.0000 -0.0000 1.0000
vn 0.0615 0.9981 -0.0000
vn -0.0615 -0.9981 -0.0000
vt 0.375000 0.000000
vt 0.625000 0.000000
vt 0.625000 0.250000
vt 0.375000 0.250000
vt 0.625000 0.500000
vt 0.375000 0.500000
vt 0.625000 0.750000
vt 0.375000 0.750000
vt 0.625000 1.000000
vt 0.375000 1.000000
vt 0.125000 0.500000
vt 0.125000 0.750000
vt 0.875000 0.500000
vt 0.875000 0.750000
s 0
f 137/57/81 138/58/81 140/59/81 139/60/81
f 139/60/82 140/59/82 144/61/82 143/62/82
f 143/62/83 144/61/83 142/63/83 141/64/83
f 141/64/84 142/63/84 138/65/84 137/66/84
f 139/67/85 143/62/85 141/64/85 137/68/85
f 144/61/86 140/69/86 138/70/86 142/63/86
o Cube.005
v 0.402805 0.577986 -0.280562
v 0.456993 0.103823 -0.280562
v 0.402805 0.577986 -0.346371
v 0.456993 0.103823 -0.346371
v 0.327796 0.569293 -0.280562
v 0.381984 0.095130 -0.280562
v 0.327796 0.569293 -0.346371
v 0.381984 0.095130 -0.346371
vn 0.9935 0.1135 -0.0000
vn -0.0000 -0.0000 -1.0000
vn -0.9935 -0.1135 -0.0000
vn -0.0000 -0.0000 1.0000
vn -0.1151 0.9934 -0.0000
vn 0.1151 -0.9934 -0.0000
vt 0.375000 0.000000
vt 0.625000 0.000000
vt 0.625000 0.250000
vt 0.375000 0.250000
vt 0.625000 0.500000
vt 0.375000 0.500000
vt 0.625000 0.750000
vt 0.375000 0.750000
vt 0.625000 1.000000
vt 0.375000 1.000000
vt 0.125000 0.500000
vt 0.125000 0.750000
vt 0.875000 0.500000
vt 0.875000 0.750000
s 0
f 145/71/87 146/72/87 148/73/87 147/74/87
f 147/74/88 148/73/88 152/75/88 151/76/88
f 151/76/89 152/75/89 150/77/89 149/78/89
f 149/78/90 150/77/90 146/79/90 145/80/90
f 147/81/91 151/76/91 149/78/91 145/82/91
f 152/75/92 148/83/92 146/84/92 150/77/92
