# Created by Kenney (www.kenney.nl)

mtllib Folliage 3.mtl

g mergedBlocks

v -0.5 0.25 -0.2886751
v -0.375 0.45 -0.2165064
v -0.5 0.25 0.2886751
v -0.375 0.45 0.2165064
v 0.5 0.25 -0.2886751
v 0.5 0.25 0.2886751
v 0.375 0.45 -0.2165064
v 0.375 0.45 0.2165064
v -7.219114E-16 0.25 0.5773503
v 0 0.45 0.4330127
v 0.5 0.05000002 0.2886751
v 0.5 0.05000002 -0.2886751
v 0.375 -0.04999998 0.2165064
v 0.375 -0.04999998 -0.2165064
v 0 -0.04999998 -0.4330127
v -7.219114E-16 0.05000002 -0.5773503
v -0.375 -0.04999998 -0.2165064
v -0.5 0.05000002 -0.2886751
v -0.375 -0.04999998 0.2165064
v -0.5 0.05000002 0.2886751
v -7.219114E-16 0.25 -0.5773503
v 0 0.45 -0.4330127
v 0 -0.04999998 0.4330127
v -7.219114E-16 0.05000002 0.5773503
v 0.102524 -0.327327 -0.0375
v 0.102524 -0.327327 0.0375
v 0.1762861 -0.1620674 -0.01875
v 0.1762861 -0.1620674 0.01875
v 0.1438101 -0.1433174 -0.01875
v 0.1438101 -0.1433174 0.01875
v 0.03757214 -0.2898269 0.0375
v 0.03757214 -0.2898269 -0.0375
v 0.075 -0.45 -0.075
v 0.075 -0.45 0.075
v -0.07757214 -0.2205449 -0.0375
v -0.07757214 -0.2205449 0.0375
v -0.2438101 0.02988771 -0.01875
v -0.2438101 0.02988771 0.01875
v -0.2762861 0.01113769 0.01875
v -0.2762861 0.01113769 -0.01875
v -0.142524 -0.2580449 0.0375
v -0.142524 -0.2580449 -0.0375
v -0.075 -0.45 0.075
v -0.075 -0.45 -0.075
v 0.002077314 -0.3403307 0.05707667
v 0.002077314 -0.3403307 -0.05707667

vn -0.7022469 0.5852057 -0.4054424
vn -0.7022469 0.5852057 0.4054424
vn 0.7022469 0.5852057 -0.4054424
vn 0.7022469 0.5852057 0.4054424
vn 0 0.5852058 0.8108849
vn 0.4931969 -0.821995 0.2847474
vn 0.4931969 -0.821995 -0.2847474
vn 0 -0.821995 -0.5694948
vn -0.4931969 -0.821995 -0.2847474
vn -0.4931969 -0.821995 0.2847474
vn 0 0.5852058 -0.8108849
vn 0 -0.821995 0.5694948
vn 0.8660254 0 0.5
vn 0 0 1
vn 0 0 -1
vn 0.8660254 0 -0.5
vn -0.8660254 0 -0.5
vn -0.8660254 0 0.5
vn 0 1 0
vn 0 -1 0
vn 0.9131678 -0.4075837 0
vn 0.5 0.8660254 0
vn 0.05180304 0.08972549 0.9946185
vn 0.05180305 0.08972552 -0.9946185
vn 0.9757414 -0.2189263 0
vn -0.8095618 0.5870347 0
vn 0.8331497 0.5530475 0
vn -0.5 0.8660254 0
vn -0.03118914 0.05402117 0.9980526
vn -0.03118914 0.05402118 -0.9980526
vn -0.895528 -0.4450051 0
vn -0.9433365 -0.3318375 0
vn 0 0.1917337 -0.981447
vn -0.01765569 0.1723949 -0.9848697
vn -0.04813307 0.1386968 -0.9891644
vn -0.01765569 0.1723949 0.9848697
vn 0 0.1917337 0.981447
vn -0.04813306 0.1386968 0.9891644
vn -0.0675566 0.1170115 0.9908302
vn -0.0675566 0.1170115 -0.9908302
vn 0.1523332 0.2589048 0.953815
vn 0.1562119 0.2596187 0.9529932
vn 0.1526201 0.2589577 0.9537547
vn 0.1491375 0.2583137 0.95448
vn 0.1562119 0.2596187 -0.9529932
vn 0.1523332 0.2589048 -0.953815
vn 0.1526201 0.2589577 -0.9537547
vn 0.1491375 0.2583137 -0.95448
vn -0.8181483 0.5750074 0
vn 0.8327162 0.5537001 0

vt -0.2886751 0.25
vt -0.2165064 0.45
vt 0.2886751 0.25
vt 0.2165064 0.45
vt 0.5 0.25
vt -7.219114E-16 0.25
vt 0.375 0.45
vt 0 0.45
vt -0.5 -0.2886751
vt -0.5 0.2886751
vt -0.375 -0.2165064
vt -0.375 0.2165064
vt 0 0.4330127
vt 7.219114E-16 0.5773503
vt 0.375 0.2165064
vt 0.5 0.2886751
vt 0.375 -0.2165064
vt 0.5 -0.2886751
vt 7.219114E-16 0.25
vt 0 -0.4330127
vt 7.219114E-16 -0.5773503
vt -0.5 0.25
vt -0.375 0.45
vt 0.5 0.05000002
vt -7.219114E-16 0.05000002
vt 7.219114E-16 0.05000002
vt -0.5 0.05000002
vt -0.2886751 0.05000002
vt 0.2886751 0.05000002
vt 0.0375 -0.327327
vt -0.0375 -0.327327
vt 0.01875 -0.1620674
vt -0.01875 -0.1620674
vt -0.1762861 -0.01875
vt -0.1762861 0.01875
vt -0.1438101 -0.01875
vt -0.1438101 0.01875
vt 0.102524 -0.327327
vt 0.03757214 -0.2898269
vt 0.1762861 -0.1620674
vt 0.1438101 -0.1433174
vt -0.102524 -0.327327
vt -0.1762861 -0.1620674
vt -0.03757214 -0.2898269
vt -0.1438101 -0.1433174
vt 0.075 -0.45
vt -0.075 -0.45
vt -0.0375 -0.2898269
vt -0.01875 -0.1433174
vt 0.0375 -0.2898269
vt 0.01875 -0.1433174
vt 0.0375 -0.2205449
vt -0.0375 -0.2205449
vt 0.01875 0.02988771
vt -0.01875 0.02988771
vt 0.2438101 0.01875
vt 0.2762861 0.01875
vt 0.2438101 -0.01875
vt 0.2762861 -0.01875
vt -0.142524 -0.2580449
vt -0.2762861 0.01113769
vt -0.07757214 -0.2205449
vt -0.2438101 0.02988771
vt 0.142524 -0.2580449
vt 0.07757214 -0.2205449
vt 0.2762861 0.01113769
vt 0.2438101 0.02988771
vt -0.0375 -0.2580449
vt -0.01875 0.01113769
vt 0.0375 -0.2580449
vt 0.01875 0.01113769
vt -0.075 -0.075
vt -0.075 0.075
vt 0.075 -0.075
vt 0.075 0.075
vt 0.002077314 -0.3403307
vt -0.002077314 -0.3403307
vt -0.05707667 -0.3403307
vt 0.05707667 -0.3403307

usemtl foliage(Clone)

f 3/3/2 2/2/1 1/1/1
f 2/2/1 3/3/2 4/4/2
f 7/4/3 6/1/4 5/3/3
f 6/1/4 7/4/3 8/2/4
f 8/7/4 9/6/5 6/5/4
f 9/6/5 8/7/4 10/8/5
f 13/11/6 12/10/7 11/9/6
f 12/10/7 13/11/6 14/12/7
f 17/15/9 16/14/8 15/13/8
f 16/14/8 17/15/9 18/16/9
f 20/18/10 17/15/9 19/17/10
f 17/15/9 20/18/10 18/16/9
f 2/7/1 21/19/11 1/5/1
f 21/19/11 2/7/1 22/8/11
f 14/12/7 16/14/8 12/10/7
f 16/14/8 14/12/7 15/13/8
f 24/21/12 19/17/10 23/20/12
f 19/17/10 24/21/12 20/18/10
f 22/8/11 5/22/3 21/19/11
f 5/22/3 22/8/11 7/23/3
f 10/8/5 3/22/2 9/6/5
f 3/22/2 10/8/5 4/23/2
f 6/5/13 24/25/14 11/24/13
f 24/25/14 6/5/13 9/6/14
f 21/19/15 12/27/16 16/26/15
f 12/27/16 21/19/15 5/22/16
f 1/5/17 16/26/15 18/24/17
f 16/26/15 1/5/17 21/19/15
f 20/29/18 1/1/17 18/28/17
f 1/1/17 20/29/18 3/3/18
f 6/1/13 12/29/16 5/3/16
f 12/29/16 6/1/13 11/28/13
f 9/6/14 20/27/18 24/25/14
f 20/27/18 9/6/14 3/22/18
f 22/20/19 8/12/19 7/11/19
f 8/12/19 22/20/19 10/13/19
f 10/13/19 22/20/19 2/17/19
f 10/13/19 2/17/19 4/15/19
f 23/20/20 14/12/20 13/11/20
f 14/12/20 23/20/20 15/13/20
f 15/13/20 23/20/20 19/17/20
f 15/13/20 19/17/20 17/15/20
f 24/21/12 13/11/6 11/9/6
f 13/11/6 24/21/12 23/20/12

usemtl wood(Clone)

f 27/32/21 26/31/21 25/30/21
f 26/31/21 27/32/21 28/33/21
f 29/36/22 28/35/22 27/34/22
f 28/35/22 29/36/22 30/37/22
f 28/40/23 31/39/23 26/38/23
f 31/39/23 28/40/23 30/41/23
f 32/44/24 27/43/24 25/42/24
f 27/43/24 32/44/24 29/45/24
f 25/30/25 34/47/25 33/46/25
f 34/47/25 25/30/25 26/31/25
f 31/50/26 29/49/26 32/48/26
f 29/49/26 31/50/26 30/51/26
f 37/54/27 36/53/27 35/52/27
f 36/53/27 37/54/27 38/55/27
f 37/58/28 39/57/28 38/56/28
f 39/57/28 37/58/28 40/59/28
f 36/62/29 39/61/29 41/60/29
f 39/61/29 36/62/29 38/63/29
f 40/66/30 35/65/30 42/64/30
f 35/65/30 40/66/30 37/67/30
f 41/70/31 40/69/31 42/68/31
f 40/69/31 41/70/31 39/71/31
f 43/74/20 33/73/20 34/72/20
f 33/73/20 43/74/20 44/75/20
f 43/46/32 42/68/32 44/47/32
f 42/68/32 43/46/32 41/70/32
f 42/64/35 33/47/34 44/46/33
f 41/60/38 43/47/37 34/46/36
f 45/76/39 41/60/38 34/46/36
f 41/60/38 45/76/39 36/62/39
f 42/64/35 46/77/40 33/47/34
f 46/77/40 42/64/35 35/65/40
f 31/39/43 45/76/42 34/46/41
f 31/39/43 34/46/41 26/38/44
f 32/44/47 33/47/46 46/77/45
f 32/44/47 25/42/48 33/47/46
f 45/79/49 32/48/49 46/78/49
f 32/48/49 45/79/49 31/50/49
f 35/52/50 45/78/50 46/79/50
f 45/78/50 35/52/50 36/53/50

